<?xml version='1.0' encoding='utf-8'?>
<svg xmlns="http://www.w3.org/2000/svg" baseProfile="tiny" height="0.1in" version="1.2" y="0in"  width="0.7in" viewBox="0 0 7000 1000" x="0in">
    <desc>
        <referenceFile>generic_female_pin_header_7_100mil_bread.svg</referenceFile>
    </desc>
    <g id="breadboard"  gorn="0.0">
        <rect fill="#404040" height="1000"  width="7000"/>
        <rect fill="none" height="386.544" y="306.727" id="connector0pin"  width="386.544" x="306.727" gorn="0.0.1"/>
        <rect fill="none" height="313.414" y="343.131" id="connector0terminal"  width="299.763" x="349.77" gorn="0.0.2"/>
        <rect height="386.544" y="306.727"  width="386.544" x="306.727"/>
        <polygon fill="#2A2A29" points="164.507,164.507 306.727,306.727 693.272,306.727 835.631,164.507 &#x9;" />
        <polygon fill="#474747" points="835.631,164.507 693.272,306.727 693.272,693.272 835.631,835.631 &#x9;" />
        <polygon fill="#595959" points="835.631,835.631 693.272,693.272 306.727,693.272 164.507,835.631 &#x9;" />
        <polygon fill="#373737" points="164.507,835.631 306.727,693.272 306.727,306.727 164.507,164.507 &#x9;" />
        <rect fill="none" height="386.544" y="306.727" id="connector1pin"  width="386.544" x="1306.73" gorn="0.0.8"/>
        <rect fill="none" height="313.414" y="343.131" id="connector1terminal"  width="299.763" x="1349.77" gorn="0.0.9"/>
        <rect height="386.544" y="306.727"  width="386.544" x="1306.73"/>
        <polygon fill="#2A2A29" points="1164.51,164.507 1306.73,306.727 1693.27,306.727 1835.63,164.507 &#x9;" />
        <polygon fill="#474747" points="1835.63,164.507 1693.27,306.727 1693.27,693.272 1835.63,835.631 &#x9;" />
        <polygon fill="#595959" points="1835.63,835.631 1693.27,693.272 1306.73,693.272 1164.51,835.631 &#x9;" />
        <polygon fill="#373737" points="1164.51,835.631 1306.73,693.272 1306.73,306.727 1164.51,164.507 &#x9;" />
        <rect fill="none" height="386.544" y="306.727" id="connector2pin"  width="386.544" x="2306.73" gorn="0.0.15"/>
        <rect fill="none" height="313.414" y="343.131" id="connector2terminal"  width="299.763" x="2349.77" gorn="0.0.16"/>
        <rect height="386.544" y="306.727"  width="386.544" x="2306.73"/>
        <polygon fill="#2A2A29" points="2164.51,164.507 2306.73,306.727 2693.27,306.727 2835.63,164.507 &#x9;" />
        <polygon fill="#474747" points="2835.63,164.507 2693.27,306.727 2693.27,693.272 2835.63,835.631 &#x9;" />
        <polygon fill="#595959" points="2835.63,835.631 2693.27,693.272 2306.73,693.272 2164.51,835.631 &#x9;" />
        <polygon fill="#373737" points="2164.51,835.631 2306.73,693.272 2306.73,306.727 2164.51,164.507 &#x9;" />
        <rect fill="none" height="386.544" y="306.727" id="connector3pin"  width="386.544" x="3306.73" gorn="0.0.22"/>
        <rect fill="none" height="313.414" y="343.131" id="connector3terminal"  width="299.763" x="3349.77" gorn="0.0.23"/>
        <rect height="386.544" y="306.727"  width="386.544" x="3306.73"/>
        <polygon fill="#2A2A29" points="3164.51,164.507 3306.73,306.727 3693.27,306.727 3835.63,164.507 &#x9;" />
        <polygon fill="#474747" points="3835.63,164.507 3693.27,306.727 3693.27,693.272 3835.63,835.631 &#x9;" />
        <polygon fill="#595959" points="3835.63,835.631 3693.27,693.272 3306.73,693.272 3164.51,835.631 &#x9;" />
        <polygon fill="#373737" points="3164.51,835.631 3306.73,693.272 3306.73,306.727 3164.51,164.507 &#x9;" />
        <rect fill="none" height="386.544" y="306.727" id="connector4pin"  width="386.544" x="4306.73" gorn="0.0.29"/>
        <rect fill="none" height="313.414" y="343.131" id="connector4terminal"  width="299.763" x="4349.77" gorn="0.0.30"/>
        <rect height="386.544" y="306.727"  width="386.544" x="4306.73"/>
        <polygon fill="#2A2A29" points="4164.51,164.507 4306.73,306.727 4693.27,306.727 4835.63,164.507 &#x9;" />
        <polygon fill="#474747" points="4835.63,164.507 4693.27,306.727 4693.27,693.272 4835.63,835.631 &#x9;" />
        <polygon fill="#595959" points="4835.63,835.631 4693.27,693.272 4306.73,693.272 4164.51,835.631 &#x9;" />
        <polygon fill="#373737" points="4164.51,835.631 4306.73,693.272 4306.73,306.727 4164.51,164.507 &#x9;" />
        <rect fill="none" height="386.544" y="306.727" id="connector5pin"  width="386.544" x="5306.73" gorn="0.0.36"/>
        <rect fill="none" height="313.414" y="343.131" id="connector5terminal"  width="299.763" x="5349.77" gorn="0.0.37"/>
        <rect height="386.544" y="306.727"  width="386.544" x="5306.73"/>
        <polygon fill="#2A2A29" points="5164.51,164.507 5306.73,306.727 5693.27,306.727 5835.63,164.507 &#x9;" />
        <polygon fill="#474747" points="5835.63,164.507 5693.27,306.727 5693.27,693.272 5835.63,835.631 &#x9;" />
        <polygon fill="#595959" points="5835.63,835.631 5693.27,693.272 5306.73,693.272 5164.51,835.631 &#x9;" />
        <polygon fill="#373737" points="5164.51,835.631 5306.73,693.272 5306.73,306.727 5164.51,164.507 &#x9;" />
        <rect fill="none" height="386.544" y="306.727" id="connector6pin"  width="386.544" x="6306.73" gorn="0.0.43"/>
        <rect fill="none" height="313.414" y="343.131" id="connector6terminal"  width="299.763" x="6349.77" gorn="0.0.44"/>
        <rect height="386.544" y="306.727"  width="386.544" x="6306.73"/>
        <polygon fill="#2A2A29" points="6164.51,164.507 6306.73,306.727 6693.27,306.727 6835.63,164.507 &#x9;" />
        <polygon fill="#474747" points="6835.63,164.507 6693.27,306.727 6693.27,693.272 6835.63,835.631 &#x9;" />
        <polygon fill="#595959" points="6835.63,835.631 6693.27,693.272 6306.73,693.272 6164.51,835.631 &#x9;" />
        <polygon fill="#373737" points="6164.51,835.631 6306.73,693.272 6306.73,306.727 6164.51,164.507 &#x9;" />
    </g>
</svg>
