<?xml version='1.0' encoding='UTF-8' standalone='no'?>
<svg
  xmlns="http://www.w3.org/2000/svg"
  xmlns:svg="http://www.w3.org/2000/svg"
  xmlns:rdf="http://www.w3.org/1999/02/22-rdf-syntax-ns#"
  xmlns:cc="http://creativecommons.org/ns#"
  xmlns:dc="http://purl.org/dc/elements/1.1/"
  id="svg2"
  y="0in"
  version="1.2"
  height="0.78740156in"
  width="0.95672727in"
  x="0in"
  viewBox="0 0 956.72721 787.40151"
  xml:space="preserve">
  <metadata
    id="metadata24">
    <rdf:RDF>
      <cc:Work
        rdf:about="">
        <dc:format>image/svg+xml</dc:format>
        <dc:type
          rdf:resource="http://purl.org/dc/dcmitype/StillImage"
        />
      </cc:Work>
    </rdf:RDF>
  </metadata>
  <defs
    id="defs22">
</defs>
  <desc
    id="desc4">
    <referenceFile>seeed-HCHO-sensor_1_breadboard.svg</referenceFile>
  </desc>
  <g
    id="breadboard">
    <path
      id="upper"
      d="M 82.711514,0 H 389.79812 c 1.51355,55.234076 37.00601,79.600934 86.61417,78.740157 C 523.45066,78.250524 561.51532,45.410358 563.02647,0 H 870.113 l 3.93709,295.27559 c -1.21664,11.04882 3.78012,18.7293 19.68503,19.68504 34.48259,-0.7249 61.60219,37.79944 62.99213,78.74015 -1.60553,35.98124 -28.12288,77.51996 -62.99213,78.74016 -11.1315,1.99186 -20.40846,5.83825 -19.68503,19.68504 L 870.113,787.40157 H 563.02647 c 2.63056,-44.85829 -31.58474,-78.6646 -86.61418,-78.74016 -52.75226,-0.0635 -82.41432,35.04971 -86.61417,78.74016 l -307.086606,-8e-5 V 492.12598 C 83.92213,479.47486 72.524771,473.14062 63.026475,472.44094 36.69572,470.93893 -1.3028731,432.21911 0.03434888,393.70078 0.22189788,350.85906 28.833099,317.27469 63.026475,314.96063 77.520049,313.15808 79.871121,304.07004 82.711514,295.27559 Z"
      fill="#214478"
      stroke-width="0"
    />
    <circle
      id="path12"
      cx="296.99918"
      cy="580.54791"
      r="185"
      fill="#999999"
      stroke="#666666"
      stroke-width="20"
    />
    <circle
      id="circle12"
      cx="296.99918"
      cy="580.54791"
      r="140"
      fill="#999999"
      stroke="#b3b3b3"
      stroke-width="40"
    />
    <rect
      height="175.99431"
      y="508.67526"
      width="160.10732"
      x="634.11151"
      id="rect35"
      fill="#999999"
      stroke-width="13.8887"
    />
    <polygon
      points="9.995,10.837 9.995,15.476 12.182,15.476 12.182,10.837 16.818,10.837 16.818,8.652 12.182,8.652 12.182,4.014 9.995,4.014 9.995,8.652 5.357,8.652 5.357,10.837 "
      id="polygon37"
      transform="matrix(11.047979,0,0,11.047979,589.77597,491.37413)"
      fill="#333333"
      stroke-width="1.25713"
    />
    <polygon
      points="9.995,8.652 9.995,4.014 10.511,4.014 10.511,9.189 5.357,9.189 5.357,8.652 "
      id="polygon39"
      transform="matrix(11.047979,0,0,11.047979,589.77597,491.37413)"
      fill="#1a1a1a"
      stroke-width="1.25713"
    />
    <polygon
      points="10.511,11.481 9.995,10.837 9.995,14.839 10.511,14.839 "
      id="polygon41"
      transform="matrix(11.047979,0,0,11.047979,589.77597,491.37413)"
      fill="#1a1a1a"
      stroke-width="1.25713"
    />
    <polygon
      points="12.68,9.171 12.18,8.655 16.039,8.655 16.039,9.171 "
      id="polygon43"
      transform="matrix(11.047979,0,0,11.047979,589.77597,491.37413)"
      fill="#1a1a1a"
      stroke-width="1.25713"
    />
    <path
      d="M 589.77597,490.84383 V 707.1964 H 834.77595 V 490.84383 Z m 122.49999,158.36173 c -27.71938,0 -50.17992,-22.46054 -50.17992,-50.17992 0,-27.73043 22.46054,-50.17992 50.17992,-50.17992 27.73043,0 50.17992,22.44949 50.17992,50.17992 0,27.71938 -22.44949,50.17992 -50.17992,50.17992 z"
      id="path45"
      fill="#3250be"
      stroke-width="13.8887"
    />
    <circle
      cx="613.65063"
      r="4.640151"
      cy="659.7674"
      id="circle47"
      fill="#e6e6e6"
      stroke-width="13.8887"
    />
    <circle
      cx="613.65063"
      r="4.640151"
      cy="659.7674"
      id="circle49"
      fill="#e6e6e6"
      stroke-width="13.8887"
    />
    <circle
      cx="613.66168"
      r="4.640151"
      cy="659.7674"
      id="circle51"
      fill="#b3b3b3"
      stroke-width="13.8887"
    />
    <path
      d="m 610.38045,663.05972 c -1.82292,-1.81186 -1.81187,-4.76168 0,-6.57354 1.81187,-1.81187 4.73958,-1.81187 6.5625,0 1.81187,1.81186 -2.40846,-3.38069 -5.64552,1.07165 -3.32544,4.52967 0.88384,7.31376 -0.91698,5.50189 z"
      id="path53"
      fill="#e6e6e6"
      stroke-width="13.8887"
    />
    <path
      d="m 616.9319,656.49722 c 1.82292,1.81187 1.81187,4.76168 0,6.57355 -1.81187,1.81187 -4.73958,1.81187 -6.5625,0 -1.80082,-1.80082 2.41951,3.36964 5.65657,-1.0606 3.31439,-4.55177 -0.89489,-7.33586 0.90593,-5.51295 z"
      id="path55"
      fill="#808080"
      stroke-width="13.8887"
    />
    <circle
      cx="678.63483"
      r="4.640151"
      cy="564.53387"
      id="circle57"
      fill="#333333"
      stroke-width="13.8887"
    />
    <circle
      cx="746.75665"
      r="4.640151"
      cy="564.53387"
      id="circle59"
      fill="#333333"
      stroke-width="13.8887"
    />
    <path
      id="path63"
      d="m 674.00576,566.92021 -23.01294,-15.40088 -6.15372,9.18087 23.03503,15.41193 c 1.71244,-3.30335 3.75632,-6.36364 6.13163,-9.19192 z"
      fill="#263c8f"
      stroke-width="13.8887"
    />
    <path
      id="path65"
      d="m 712.27596,548.84572 c 1.73453,0 3.36963,0.33144 5.05998,0.5082 l -0.38668,-40.70075 -11.04798,0.12153 0.38668,40.67866 c 1.98863,-0.23201 3.93308,-0.60764 5.988,-0.60764 z"
      fill="#263c8f"
      stroke-width="13.8887"
    />
    <path
      id="path67"
      d="m 692.46693,552.94452 -12.67203,-22.4053 -9.61174,5.4356 12.72727,22.51578 c 2.98296,-2.1654 6.13163,-4.0767 9.5565,-5.54608 z"
      fill="#263c8f"
      stroke-width="13.8887"
    />
    <path
      id="path69"
      d="m 762.45588,599.02564 c 0,0.46401 -0.12153,0.87279 -0.14362,1.34785 l 27.17803,-2.38636 -0.98327,-11.00379 -27.02336,2.37532 c 0.61869,3.13762 0.97222,6.36363 0.97222,9.66698 z"
      fill="#263c8f"
      stroke-width="13.8887"
    />
    <path
      id="path71"
      d="m 740.95651,557.92716 12.0644,-22.10701 -9.71118,-5.28093 -12.04229,22.08491 c 3.42487,1.40309 6.66193,3.19286 9.68907,5.30303 z"
      fill="#263c8f"
      stroke-width="13.8887"
    />
    <path
      id="path73"
      d="m 756.76617,576.29994 21.53251,-14.30713 -6.10953,-9.20296 -21.53251,14.29608 c 2.37532,2.82828 4.41919,5.88857 6.10953,9.21401 z"
      fill="#263c8f"
      stroke-width="13.8887"
    />
    <path
      id="path75"
      d="m 756.24692,622.7567 28.17234,11.27998 4.08776,-10.26357 -28.11711,-11.26894 c -1.00537,3.60164 -2.38636,7.01547 -4.14299,10.25253 z"
      fill="#263c8f"
      stroke-width="13.8887"
    />
    <path
      id="path77"
      d="m 742.06131,639.21818 32.75726,35.11048 8.05398,-7.54577 -32.77936,-35.14362 c -2.39741,2.81724 -5.03788,5.38037 -8.03188,7.57891 z"
      fill="#263c8f"
      stroke-width="13.8887"
    />
    <path
      id="path79"
      d="m 674.24882,631.44041 -23.15657,24.54861 8.04293,7.57891 23.14552,-24.51546 c -2.97191,-2.24274 -5.62342,-4.78378 -8.03188,-7.61206 z"
      fill="#263c8f"
      stroke-width="13.8887"
    />
    <path
      id="path81"
      d="m 662.09604,599.02564 c 0,-3.50221 0.36458,-6.90499 1.04956,-10.21938 l -29.28819,-2.86143 -1.07166,10.98169 29.39867,2.90562 c -0.011,-0.2762 -0.0884,-0.51926 -0.0884,-0.8065 z"
      fill="#263c8f"
      stroke-width="13.8887"
    />
    <path
      id="path83"
      d="m 663.88581,611.60929 -29.76325,11.27998 3.91098,10.35196 29.84059,-11.27999 c -1.70139,-3.2923 -3.06029,-6.72822 -3.98832,-10.35195 z"
      fill="#263c8f"
      stroke-width="13.8887"
    />
    <polygon
      points="16.529,10.964 16.529,10.837 12.182,10.837 12.182,14.628 12.307,14.628 12.316,10.982 "
      id="polygon85"
      transform="matrix(11.047979,0,0,11.047979,589.77597,491.37413)"
      fill="#cccccc"
      stroke-width="1.25713"
    />
    <path
      d="m 712.27596,535.30089 c -35.20991,0 -63.74684,28.53693 -63.74684,63.75789 0,35.22096 28.53693,63.75789 63.74684,63.75789 35.22096,0 63.74684,-28.53693 63.74684,-63.75789 -0.011,-35.232 -28.55903,-63.75789 -63.74684,-63.75789 z m 0,113.90467 c -27.71938,0 -50.17992,-22.46054 -50.17992,-50.17992 0,-27.73043 22.46054,-50.17992 50.17992,-50.17992 27.73043,0 50.17992,22.44949 50.17992,50.17992 0,27.71938 -22.44949,50.17992 -50.17992,50.17992 z"
      id="path87"
      fill="#263c8f"
      stroke-width="13.8887"
    />
    <path
      id="path91"
      d="m 751.57362,647.64779 -0.86174,0.69603 c -11.11427,8.67266 -24.40499,13.24652 -38.43592,13.24652 -14.16351,0 -27.55366,-4.6512 -38.70107,-13.46748 l -0.86174,-0.69603 -13.63321,14.46181 -6.29735,-5.94381 13.63321,-14.45076 -0.72917,-0.81755 c -3.86679,-4.34186 -7.11489,-9.16982 -9.64488,-14.39552 l -0.47507,-0.98327 -16.84816,6.36364 -3.07134,-8.08712 16.80397,-6.36364 -0.29829,-1.04956 c -1.61301,-5.70075 -2.43056,-11.43466 -2.43056,-17.12436 v -1.07166 l -1.03851,-0.67393 -14.59438,-1.43623 0.8507,-8.61743 15.66603,1.55777 0.19887,-1.09375 c 1.21527,-6.66193 3.44697,-12.95928 6.60669,-18.70423 l 0.51925,-0.95013 -11.43466,-7.67834 4.81692,-7.20328 11.45676,7.66729 0.68497,-0.86174 c 3.85575,-4.78377 8.35227,-8.98201 13.3791,-12.46212 l 0.89489,-0.62973 -5.92172,-10.45139 7.53473,-4.27557 5.93276,10.48453 0.99432,-0.44192 c 6.38573,-2.93876 13.125,-4.76168 19.99684,-5.41351 l 1.09375,-0.0994 -0.2541,-26.71401 8.66161,-0.0994 0.25411,26.76925 1.09375,0.0994 c 7.04861,0.54135 13.84311,2.23169 20.2178,5.00474 l 0.99432,0.44192 5.4577,-10.00947 7.61205,4.13194 -5.47979,10.02052 0.91698,0.60764 c 5.44665,3.62373 10.30776,8.06502 14.40656,13.26862 l 0.69603,0.86174 9.93213,-6.61774 4.80587,7.20328 -9.93213,6.5846 0.54135,0.96117 c 3.17077,5.84438 5.39141,12.3185 6.59564,19.16825 l 0.20991,1.09375 13.4012,-1.16004 0.74022,8.61742 -13.4012,1.17109 -0.0221,1.0827 c -0.011,6.17582 -0.91698,12.26326 -2.7178,18.12973 l -0.32039,1.06061 15.21307,6.08744 -3.21497,8.04293 -15.2683,-6.10954 -0.49716,0.97223 c -2.4858,4.87215 -5.63447,9.44602 -9.37974,13.58901 l -0.72916,0.79545 23.31123,25.00158 -6.33049,5.92172 z"
      fill="none"
      stroke="#000000"
      stroke-width="2.77777"
    />
    <text
      id="text95"
      font-size="44.1919"
      x="612.62207"
      y="698.46185"
      font-family="Arial-BoldMT"
      fill="#263c8f"
      stroke-width="13.8887">1 3362  3</text>
    <path
      d="m 665.54301,602.96977 c 0,-27.73043 22.46054,-50.17992 50.17992,-50.17992 10.3851,0 24.60385,4.64015 24.60385,4.64015 -8.00978,-5.41351 -17.67677,-8.56219 -28.05082,-8.56219 -27.71938,0 -50.17992,22.4495 -50.17992,50.17992 0,7.23643 1.53567,14.13037 4.30871,20.37248 0,-0.0221 -0.86174,-9.21402 -0.86174,-16.45044 z"
      enable-background="new    "
      id="path97"
      opacity="0.35"
      stroke-width="13.8887"
    />
    <rect
      x="589.77594"
      id="rect99"
      width="244.99998"
      y="707.20746"
      height="71.668243"
      fill="#131e48"
      stroke-width="13.8887"
    />
    <rect
      x="589.77594"
      id="rect101"
      enable-background="new    "
      width="244.99998"
      y="701.56195"
      height="11.64457"
      opacity="0.18"
      fill="#ffffff"
      stroke-width="13.8887"
    />
    <rect
      height="27.957909"
      width="83.070869"
      x="-567.04236"
      id="rect3806"
      y="-394.5369"
      fill="#4d4d4d"
      transform="scale(-1)"
      stroke-width="1.00001"
    />
    <rect
      height="0.4796958"
      width="83.070869"
      enable-background="new    "
      x="-567.04236"
      id="rect3808"
      y="-394.5369"
      fill="#ffffff"
      opacity="0.2"
      transform="scale(-1)"
      stroke-width="1.00001"
    />
    <rect
      height="8.3320894"
      width="83.070869"
      y="-373.36777"
      x="-567.04236"
      id="rect3810"
      fill="#333333"
      transform="scale(-1)"
      stroke-width="1.00001"
    />
    <rect
      height="0.33370101"
      width="83.070869"
      y="-365.31717"
      enable-background="new    "
      x="-567.04236"
      id="rect3812"
      opacity="0.2"
      transform="scale(-1)"
      stroke-width="1.00001"
    />
    <path
      d="m 496.03692,394.53691 v 0 0 h 0.96985 v 0 c 0.83424,-2.61747 1.4078,-8.30086 1.4078,-11.21032 0,-3.03459 -0.50058,-7.22672 -1.4078,-9.9589 v 0 0 l -12.75364,7e-5 v 21.16915 z"
      id="path3814"
      fill="#dcdcdc"
      stroke-width="1.00001"
    />
    <path
      d="m 554.05926,393.45238 v 1.08453 h 12.74328 V 373.36776 H 554.0489 c -0.91773,2.74255 -2.01267,6.87211 -2.01267,9.94847 0,3.60811 0.78207,6.99727 2.02303,10.13615 z"
      id="path3816"
      fill="#dcdcdc"
      stroke-width="1.00001"
    />
    <path
      d="m 484.1803,372.26232 h 12.75349 l 0.0728,1.10544 h -12.75364 z"
      id="path3818"
      fill="#999999"
      stroke-width="1.00001"
    />
    <path
      d="m 566.73992,372.24152 h -12.75364 l 0.0728,1.12624 h 12.74328 l -0.0623,-1.12624 z"
      id="path3820"
      fill="#999999"
      stroke-width="1.00001"
    />
    <rect
      height="0.4796958"
      width="12.75364"
      y="-365.4632"
      enable-background="new    "
      x="-566.80249"
      id="rect3822"
      opacity="0.15"
      transform="scale(-1)"
      stroke-width="1.00001"
    />
    <rect
      height="0.4796958"
      width="12.75364"
      enable-background="new    "
      x="-566.80249"
      id="rect3824"
      y="-394.5369"
      fill="#ffffff"
      opacity="0.5"
      transform="scale(-1)"
      stroke-width="1.00001"
    />
    <rect
      height="0.4796958"
      width="12.764077"
      y="-365.4632"
      enable-background="new    "
      x="-496.99634"
      id="rect3826"
      opacity="0.15"
      transform="scale(-1)"
      stroke-width="1.00001"
    />
    <rect
      height="0.4796958"
      width="12.764077"
      enable-background="new    "
      x="-496.99634"
      id="rect3828"
      y="-394.5369"
      fill="#ffffff"
      opacity="0.5"
      transform="scale(-1)"
      stroke-width="1.00001"
    />
    <line
      x1="559.09619"
      y2="364.98349"
      y1="364.98349"
      x2="559.09619"
      id="line3830"
      fill="none"
      stroke-width="1.00001"
    />
    <rect
      height="7.216291"
      width="1.2305247"
      y="-372.26233"
      x="-485.21277"
      id="rect3832"
      fill="#999999"
      transform="scale(-1)"
      stroke-width="1.00001"
    />
    <rect
      height="7.216291"
      width="1.2409537"
      y="-372.26233"
      x="-566.80249"
      id="rect3834"
      fill="#999999"
      transform="scale(-1)"
      stroke-width="1.00001"
    />
    <circle
      id="3pin_ra_header"
      cx="77.07412"
      cy="395.74802"
      r="45"
      fill-opacity="1"
      fill="#ffffff"
    />
    <text
      fill="#ffffff"
      font-family="OCRA"
      id="text3685"
      font-size="35"
      y="338.62109"
      x="299.87018">GND</text>
    <circle
      id="circle1"
      cx="876.29413"
      cy="395.74802"
      r="45"
      fill-opacity="1"
      fill="#ffffff"
    />
    <rect
      height="27.957909"
      width="83.070869"
      x="-724.52246"
      id="rect1"
      y="-394.5369"
      fill="#4d4d4d"
      transform="scale(-1)"
      stroke-width="1.00001"
    />
    <rect
      height="0.4796958"
      width="83.070869"
      enable-background="new    "
      x="-724.52246"
      id="rect2"
      y="-394.5369"
      fill="#ffffff"
      opacity="0.2"
      transform="scale(-1)"
      stroke-width="1.00001"
    />
    <rect
      height="8.3320894"
      width="83.070869"
      y="-373.36777"
      x="-724.52246"
      id="rect3"
      fill="#333333"
      transform="scale(-1)"
      stroke-width="1.00001"
    />
    <rect
      height="0.33370101"
      width="83.070869"
      y="-365.31717"
      enable-background="new    "
      x="-724.52246"
      id="rect4"
      opacity="0.2"
      transform="scale(-1)"
      stroke-width="1.00001"
    />
    <path
      d="m 653.51702,394.53691 v 0 0 h 0.96985 v 0 c 0.83424,-2.61747 1.4078,-8.30086 1.4078,-11.21032 0,-3.03459 -0.50058,-7.22672 -1.4078,-9.9589 v 0 0 l -12.75364,7e-5 v 21.16915 z"
      id="path4"
      fill="#dcdcdc"
      stroke-width="1.00001"
    />
    <path
      d="m 711.53936,393.45238 v 1.08453 h 12.74328 V 373.36776 H 711.529 c -0.91773,2.74255 -2.01267,6.87211 -2.01267,9.94847 0,3.60811 0.78207,6.99727 2.02303,10.13615 z"
      id="path5"
      fill="#dcdcdc"
      stroke-width="1.00001"
    />
    <path
      d="m 641.6604,372.26232 h 12.75349 l 0.0728,1.10544 h -12.75364 z"
      id="path6"
      fill="#999999"
      stroke-width="1.00001"
    />
    <path
      d="m 724.22002,372.24152 h -12.75364 l 0.0728,1.12624 h 12.74328 l -0.0623,-1.12624 z"
      id="path7"
      fill="#999999"
      stroke-width="1.00001"
    />
    <rect
      height="0.4796958"
      width="12.75364"
      y="-365.4632"
      enable-background="new    "
      x="-724.28259"
      id="rect7"
      opacity="0.15"
      transform="scale(-1)"
      stroke-width="1.00001"
    />
    <rect
      height="0.4796958"
      width="12.75364"
      enable-background="new    "
      x="-724.28259"
      id="rect8"
      y="-394.5369"
      fill="#ffffff"
      opacity="0.5"
      transform="scale(-1)"
      stroke-width="1.00001"
    />
    <rect
      height="0.4796958"
      width="12.764077"
      y="-365.4632"
      enable-background="new    "
      x="-654.47638"
      id="rect9"
      opacity="0.15"
      transform="scale(-1)"
      stroke-width="1.00001"
    />
    <rect
      height="0.4796958"
      width="12.764077"
      enable-background="new    "
      x="-654.47638"
      id="rect10"
      y="-394.5369"
      fill="#ffffff"
      opacity="0.5"
      transform="scale(-1)"
      stroke-width="1.00001"
    />
    <line
      x1="716.57623"
      y2="364.98349"
      y1="364.98349"
      x2="716.57623"
      id="line10"
      fill="none"
      stroke-width="1.00001"
    />
    <rect
      height="7.216291"
      width="1.2305247"
      y="-372.26233"
      x="-642.69281"
      id="rect11"
      fill="#999999"
      transform="scale(-1)"
      stroke-width="1.00001"
    />
    <rect
      height="7.216291"
      width="1.2409537"
      y="-372.26233"
      x="-724.28259"
      id="rect12"
      fill="#999999"
      transform="scale(-1)"
      stroke-width="1.00001"
    />
    <rect
      x="-714.7453"
      height="174.45833"
      width="498.95834"
      id="bgnd"
      y="-270.87592"
      gorn="0.0.0"
      transform="scale(-1)"
      fill="#e6e6e6"
      stroke="none"
      stroke-width="0"
    />
    <rect
      x="-713.70361"
      height="38.861"
      width="500"
      id="top inset"
      y="-294.83078"
      gorn="0.0.1"
      transform="scale(-1)"
      fill="#cccccc"
      stroke="none"
      stroke-width="0"
    />
    <rect
      x="-714.7453"
      height="38.861"
      width="500"
      id="bottom inset"
      y="-135.2787"
      gorn="0.0.2"
      transform="scale(-1)"
      fill="#cccccc"
      stroke="none"
      stroke-width="0"
    />
    <path
      d="M 714.74533,295.87928 V 96.4177 l -40,40 v 120 z"
      id="left inset"
      gorn="0.0.3"
      fill="#b3b3b3"
      stroke="none"
      stroke-width="0"
    />
    <path
      d="m 213.70367,294.83079 1.04166,-198.41309 40,40 v 120 z"
      id="right inset"
      gorn="0.0.4"
      fill="#b3b3b3"
      stroke="none"
      stroke-width="0"
    />
    <rect
      x="-714.7453"
      height="24.972"
      width="500"
      id="top border"
      y="-295.87927"
      gorn="0.0.5"
      transform="scale(-1)"
      fill="#e6e6e6"
      stroke="none"
      stroke-width="0"
    />
    <rect
      x="-714.7453"
      height="24.972"
      width="476.04166"
      id="bottom border"
      y="-121.38969"
      gorn="0.0.6"
      transform="scale(-1)"
      fill="#e6e6e6"
      stroke="none"
      stroke-width="0"
    />
    <rect
      x="-714.7453"
      height="200.5"
      width="24.972"
      id="left border"
      y="-296.91766"
      gorn="0.0.7"
      transform="scale(-1)"
      fill="#e6e6e6"
      stroke="none"
      stroke-width="0"
    />
    <rect
      x="-238.67242"
      height="199.45833"
      width="24.972"
      id="right border"
      y="-295.87598"
      gorn="0.0.8"
      transform="scale(-1)"
      fill="#e6e6e6"
      stroke="none"
      stroke-width="0"
    />
    <rect
      x="-372.21753"
      height="52.763889"
      width="52.763889"
      id="rect30"
      y="-223.13675"
      gorn="0.0.21"
      transform="scale(-1)"
      fill="#cccccc"
      stroke="none"
      stroke-width="0"
    />
    <rect
      x="-361.80054"
      height="31.930559"
      width="31.930559"
      id="rect156"
      y="-212.72009"
      gorn="0.0.22"
      transform="scale(-1)"
      fill="#8c8663"
      stroke="none"
      stroke-width="0"
    />
    <rect
      x="-361.80054"
      height="7.75"
      width="31.930559"
      id="rect33"
      y="-212.72009"
      gorn="0.0.23"
      transform="scale(-1)"
      fill="#b8af82"
      stroke="none"
      stroke-width="0"
    />
    <rect
      x="-361.80054"
      height="7.75"
      width="31.930559"
      id="rect35-5"
      y="-188.53954"
      gorn="0.0.24"
      transform="scale(-1)"
      fill="#5e5b43"
      stroke="none"
      stroke-width="0"
    />
    <path
      d="m 361.80044,212.72009 v -31.93056 l -7.75,7.75 v 16.43056 z"
      id="path37"
      gorn="0.0.25"
      fill="#9a916c"
      stroke="none"
      stroke-width="0"
    />
    <path
      d="m 329.87044,212.72009 v -31.93056 l 7.75,7.75 v 16.43056 z"
      id="path39"
      gorn="0.0.26"
      fill="#9a916c"
      stroke="none"
      stroke-width="0"
    />
    <rect
      x="-608.45361"
      height="52.763889"
      width="52.763889"
      id="lower connector bgnd"
      y="-222.81702"
      gorn="0.0.27"
      transform="scale(-1)"
      fill="#cccccc"
      stroke="none"
      stroke-width="0"
    />
    <rect
      x="-598.03662"
      height="31.930559"
      width="31.930559"
      id="rect144"
      y="-212.40034"
      gorn="0.0.28"
      transform="scale(-1)"
      fill="#8c8663"
      stroke="none"
      stroke-width="0"
    />
    <rect
      x="-598.03662"
      height="7.75"
      width="31.930559"
      id="lower connector top inset"
      y="-212.40034"
      gorn="0.0.29"
      transform="scale(-1)"
      fill="#b8af82"
      stroke="none"
      stroke-width="0"
    />
    <rect
      x="-598.03662"
      height="7.75"
      width="31.930559"
      id="lower connector bottom inset"
      y="-188.2198"
      gorn="0.0.30"
      transform="scale(-1)"
      fill="#5e5b43"
      stroke="none"
      stroke-width="0"
    />
    <path
      d="m 598.03665,212.40035 v -31.93056 l -7.74999,7.75 v 16.43056 z"
      id="lower connector left inset"
      gorn="0.0.31"
      fill="#9a916c"
      stroke="none"
      stroke-width="0"
    />
    <path
      d="m 566.10664,212.40035 v -31.93056 l 7.75,7.75 v 16.43056 z"
      id="lower connector right inset"
      gorn="0.0.32"
      fill="#9a916c"
      stroke="none"
      stroke-width="0"
    />
    <rect
      x="-529.69769"
      height="52.763889"
      width="52.763889"
      id="rect47"
      y="-222.81702"
      gorn="0.0.33"
      transform="scale(-1)"
      fill="#cccccc"
      stroke="none"
      stroke-width="0"
    />
    <rect
      x="-519.2807"
      height="31.930559"
      width="31.930559"
      id="rect148"
      y="-212.40034"
      gorn="0.0.34"
      transform="scale(-1)"
      fill="#8c8663"
      stroke="none"
      stroke-width="0"
    />
    <rect
      x="-519.2807"
      height="7.75"
      width="31.930559"
      id="rect50"
      y="-212.40034"
      gorn="0.0.35"
      transform="scale(-1)"
      fill="#b8af82"
      stroke="none"
      stroke-width="0"
    />
    <rect
      x="-519.2807"
      height="7.75"
      width="31.930559"
      id="rect52"
      y="-188.2198"
      gorn="0.0.36"
      transform="scale(-1)"
      fill="#5e5b43"
      stroke="none"
      stroke-width="0"
    />
    <path
      d="m 519.28074,212.40035 v -31.93056 l -7.75,7.75 v 16.43056 z"
      id="path54"
      gorn="0.0.37"
      fill="#9a916c"
      stroke="none"
      stroke-width="0"
    />
    <path
      d="m 487.35074,212.40035 v -31.93056 l 7.75,7.75 v 16.43056 z"
      id="path56"
      gorn="0.0.38"
      fill="#9a916c"
      stroke="none"
      stroke-width="0"
    />
    <rect
      x="-450.95761"
      height="52.763889"
      width="52.763889"
      id="rect58"
      y="-222.81702"
      gorn="0.0.39"
      transform="scale(-1)"
      fill="#cccccc"
      stroke="none"
      stroke-width="0"
    />
    <rect
      x="-440.54062"
      height="31.930559"
      width="31.930559"
      id="rect152"
      y="-212.40034"
      gorn="0.0.40"
      transform="scale(-1)"
      fill="#8c8663"
      stroke="none"
      stroke-width="0"
    />
    <rect
      x="-440.54062"
      height="7.75"
      width="31.930559"
      id="rect61"
      y="-212.40034"
      gorn="0.0.41"
      transform="scale(-1)"
      fill="#b8af82"
      stroke="none"
      stroke-width="0"
    />
    <rect
      x="-440.54062"
      height="7.75"
      width="31.930559"
      id="rect63"
      y="-188.2198"
      gorn="0.0.42"
      transform="scale(-1)"
      fill="#5e5b43"
      stroke="none"
      stroke-width="0"
    />
    <path
      d="m 440.5406,212.40035 v -31.93056 l -7.75,7.75 v 16.43056 z"
      id="path65-4"
      gorn="0.0.43"
      fill="#9a916c"
      stroke="none"
      stroke-width="0"
    />
    <path
      d="m 408.6106,212.40035 v -31.93056 l 7.75,7.75 v 16.43056 z"
      id="path67-7"
      gorn="0.0.44"
      fill="#9a916c"
      stroke="none"
      stroke-width="0"
    />
    <rect
      rx="1.4877979"
      ry="0.79932821"
      transform="matrix(-0.80008434,0.59988752,0,-1,0,0)"
      y="-570.6217"
      x="-776.61493"
      height="10.500355"
      width="10.526847"
      id="rect127"
      fill="#b3b3b3"
      stroke-width="7.90699"
    />
    <rect
      id="rect129"
      width="11.654875"
      height="7.3547039"
      x="-632.65802"
      y="-643.49573"
      transform="matrix(-0.51872009,0.85494413,0,-1,0,0)"
      ry="1.757097"
      rx="2.2948096"
      fill="#b3b3b3"
      stroke-width="14.871"
    />
    <rect
      x="-622.0509"
      height="8.1885452"
      width="299.0174"
      id="slot"
      y="-121.44762"
      gorn="0.0.45"
      transform="scale(-1)"
      fill="#e6e6e6"
      stroke="none"
      stroke-width="0"
    />
    <rect
      gorn="0.0.45"
      y="-121.44762"
      id="rect140"
      width="299.0174"
      height="24.853321"
      x="-622.0509"
      transform="scale(-1)"
      fill="#cccccc"
      stroke="none"
      stroke-width="0"
    />
    <text
      fill="#ffffff"
      font-family="OCRA"
      id="text12"
      font-size="35"
      y="338.62109"
      x="390.44943">VCC</text>
    <text
      fill="#ffffff"
      font-family="OCRA"
      id="text14"
      font-size="35"
      y="338.62109"
      x="477.0636">NC</text>
    <text
      fill="#ffffff"
      font-family="OCRA"
      id="text15"
      font-size="35"
      y="338.62109"
      x="547.91589">SIG</text>
    <rect
      gorn="0.0.28"
      y="-212.40034"
      id="connector0pin"
      width="31.930559"
      height="31.930559"
      x="-598.03662"
      transform="scale(-1)"
      fill="none"
      stroke="none"
      stroke-width="0"
    />
    <rect
      gorn="0.0.34"
      y="-212.40034"
      width="31.930559"
      height="31.930559"
      x="-519.2807"
      id="connector1pin"
      transform="scale(-1)"
      fill="none"
      stroke="none"
      stroke-width="0"
    />
    <rect
      gorn="0.0.40"
      y="-212.40034"
      id="connector2pin"
      width="31.930559"
      height="31.930559"
      x="-440.54062"
      transform="scale(-1)"
      fill="none"
      stroke="none"
      stroke-width="0"
    />
    <rect
      gorn="0.0.22"
      y="-212.72009"
      id="connector3pin"
      width="31.930559"
      height="31.930559"
      x="-361.80054"
      transform="scale(-1)"
      fill="none"
      stroke="none"
      stroke-width="0"
    />
  </g>
</svg>
