<?xml version='1.0' encoding='UTF-8' standalone='no'?>
<!-- Created with Fritzing (http://www.fritzing.org/) -->
<svg xmlns="http://www.w3.org/2000/svg" x="0in" baseProfile="tiny" viewBox="0 0 72 57.6" version="1.2" width="1in"  height="0.8in" y="0in">
    <desc>
        <referenceFile>BNO055 Rev D1_pcb.svg</referenceFile>
    </desc>
    <desc >Fritzing footprint generated by brd2svg</desc>
    <g gorn="0.1" id="silkscreen" >
        <path stroke="white" fill="none" d="M0.288,7.416A6.912,6.912,0,0,1,7.4304,0.288L64.5696,0.288A6.912,6.912,0,0,1,71.712,7.416L71.712,50.184A6.912,6.912,0,0,1,64.5696,57.312L7.4304,57.312A6.912,6.912,0,0,1,0.288,50.184L0.288,7.416"  stroke-width="0.576"/>
        <path stroke="white" fill="none" d="M53.2913,14.7628A3.24,3.24,0,0,0,56.5313,11.5228"  stroke-width="0.72"/>
        <path stroke="white" fill="none" d="M50.0513,11.5228A3.24,3.24,0,0,0,53.2913,14.7628"  stroke-width="0.72"/>
        <path stroke="white" fill="none" d="M53.2913,8.28281A3.24,3.24,0,0,0,50.0513,11.5228"  stroke-width="0.72"/>
        <path stroke="white" fill="none" d="M56.5313,11.5228A3.1849,3.1849,0,0,0,53.2913,8.28281"  stroke-width="0.72"/>
        <g >
            <title >polygon</title>
            <path stroke="white" fill="none" d="M56.8913,11.8828L56.8913,11.1628L58.6913,11.1628L58.6913,10.4428L60.1313,11.5228L58.6913,12.6028L58.6913,11.8828L56.8913,11.8828" stroke-linecap="round"  stroke-width="0.72"/>
        </g>
        <g >
            <title >polygon</title>
            <path stroke="white" fill="none" d="M53.6287,7.91719L52.9087,7.91719L52.9087,6.11716L52.1887,6.11716L53.2687,4.67716L54.3487,6.11716L53.6287,6.11716L53.6287,7.91719" stroke-linecap="round"  stroke-width="0.72"/>
        </g>
        <g >
            <title >element:CONN3</title>
            <g >
                <title >package:JST_SH4</title>
                <line x1="65.8942" stroke="white" x2="58.5241" y2="37.3039" stroke-linecap="round"  stroke-width="0.432" y1="37.3039"/>
                <line x1="58.5241" stroke="white" x2="58.5241" y2="34.1858" stroke-linecap="round"  stroke-width="0.432" y1="37.3039"/>
                <line x1="58.5241" stroke="white" x2="58.5241" y2="20.0126" stroke-linecap="round"  stroke-width="0.432" y1="23.4142"/>
                <line x1="58.5241" stroke="white" x2="65.8942" y2="20.0126" stroke-linecap="round"  stroke-width="0.432" y1="20.0126"/>
                <line x1="70.7131" stroke="white" x2="70.7131" y2="22.8473" stroke-linecap="round"  stroke-width="0.432" y1="34.7527"/>
            </g>
        </g>
        <g >
            <title >element:CONN4</title>
            <g >
                <title >package:JST_SH4</title>
                <line x1="6.10583" stroke="white" x2="13.4759" y2="20.2961" stroke-linecap="round"  stroke-width="0.432" y1="20.2961"/>
                <line x1="13.4759" stroke="white" x2="13.4759" y2="23.4142" stroke-linecap="round"  stroke-width="0.432" y1="20.2961"/>
                <line x1="13.4759" stroke="white" x2="13.4759" y2="37.5874" stroke-linecap="round"  stroke-width="0.432" y1="34.1858"/>
                <line x1="13.4759" stroke="white" x2="6.10583" y2="37.5874" stroke-linecap="round"  stroke-width="0.432" y1="37.5874"/>
                <line x1="1.28693" stroke="white" x2="1.28693" y2="34.7527" stroke-linecap="round"  stroke-width="0.432" y1="22.8473"/>
            </g>
        </g>
        <g >
            <title >element:U$53</title>
            <g >
                <title >package:STEMMAQT</title>
            </g>
        </g>
        <g >
            <title >element:U$54</title>
            <g >
                <title >package:STEMMAQT</title>
            </g>
        </g>
    </g>
    <g gorn="0.2" id="copper1" >
        <g gorn="0.2.0" id="copper0" >
            <circle stroke="#F7BD13" gorn="0.2.0.0" fill="none" connectorname="P$1" id="connector98pad"  cy="7.2" stroke-width="1.44" cx="64.8" r="4.26331"/>
            <g transform="matrix(-1, 0, 0, -1, 115.348, 66.1039)" >
                <g >
                    <rect stroke="none" gorn="0.2.0.1.0.0" x="55.4769" fill="#F7BD13" id="connector17pad" width="4.3937"  height="1.70078" stroke-width="0" y="32.2016"/>
                </g>
            </g>
            <g transform="matrix(-1, 0, 0, -1, 115.348, 60.4346)" >
                <g >
                    <rect stroke="none" gorn="0.2.0.2.0.0" x="55.4769" fill="#F7BD13" id="connector18pad" width="4.3937"  height="1.70078" stroke-width="0" y="29.3669"/>
                </g>
            </g>
            <g transform="matrix(-1, 0, 0, -1, 115.348, 54.7654)" >
                <g >
                    <rect stroke="none" gorn="0.2.0.3.0.0" x="55.4769" fill="#F7BD13" id="connector19pad" width="4.3937"  height="1.70078" stroke-width="0" y="26.5323"/>
                </g>
            </g>
            <g transform="matrix(-1, 0, 0, -1, 115.348, 49.0961)" >
                <g >
                    <rect stroke="none" gorn="0.2.0.4.0.0" x="55.4769" fill="#F7BD13" id="connector20pad" width="4.3937"  height="1.70078" stroke-width="0" y="23.6976"/>
                </g>
            </g>
            <rect stroke="none" gorn="0.2.0.5" x="12.1295" fill="#F7BD13" id="connector23pad" width="4.3937"  height="1.70078" stroke-width="0" y="23.6976"/>
            <rect stroke="none" gorn="0.2.0.6" x="12.1295" fill="#F7BD13" id="connector24pad" width="4.3937"  height="1.70078" stroke-width="0" y="26.5323"/>
            <rect stroke="none" gorn="0.2.0.7" x="12.1295" fill="#F7BD13" id="connector25pad" width="4.3937"  height="1.70078" stroke-width="0" y="29.3669"/>
            <rect stroke="none" gorn="0.2.0.8" x="12.1295" fill="#F7BD13" id="connector26pad" width="4.3937"  height="1.70078" stroke-width="0" y="32.2016"/>
            <circle stroke="#F7BD13" gorn="0.2.0.9" fill="none" connectorname="P$1" id="connector100pad"  cy="50.4" stroke-width="1.44" cx="64.8" r="4.26331"/>
            <circle stroke="#F7BD13" gorn="0.2.0.10" fill="none" connectorname="INT_3V" id="connector35pad"  cy="7.2" stroke-width="1.31868" cx="25.2" r="2.07666"/>
            <circle stroke="#F7BD13" gorn="0.2.0.11" fill="none" connectorname="I2CADDR_3V" id="connector36pad"  cy="7.2" stroke-width="1.31868" cx="32.4" r="2.07666"/>
            <circle stroke="#F7BD13" gorn="0.2.0.12" fill="none" connectorname="PS0_3V" id="connector37pad"  cy="7.2" stroke-width="1.31868" cx="39.6" r="2.07666"/>
            <circle stroke="#F7BD13" gorn="0.2.0.13" fill="none" connectorname="PS1_3V" id="connector38pad"  cy="7.2" stroke-width="1.31868" cx="46.8" r="2.07666"/>
            <circle stroke="#F7BD13" gorn="0.2.0.14" fill="none" connectorname="VCC" id="connector39pad"  cy="50.4" stroke-width="1.10268" cx="18" r="1.96866"/>
            <circle stroke="#F7BD13" gorn="0.2.0.15" fill="none" connectorname="3.3V" id="connector40pad"  cy="50.4" stroke-width="1.10268" cx="25.2" r="1.96866"/>
            <circle stroke="#F7BD13" gorn="0.2.0.16" fill="none" connectorname="GND" id="connector41pad"  cy="50.4" stroke-width="1.10268" cx="32.4" r="1.96866"/>
            <circle stroke="#F7BD13" gorn="0.2.0.17" fill="none" connectorname="SCL" id="connector42pad"  cy="50.4" stroke-width="1.10268" cx="39.6" r="1.96866"/>
            <circle stroke="#F7BD13" gorn="0.2.0.18" fill="none" connectorname="SDA" id="connector43pad"  cy="50.4" stroke-width="1.10268" cx="46.8" r="1.96866"/>
            <circle stroke="#F7BD13" gorn="0.2.0.19" fill="none" connectorname="RESET" id="connector44pad"  cy="50.4" stroke-width="1.10268" cx="54" r="1.96866"/>
            <circle stroke="#F7BD13" gorn="0.2.0.20" fill="none" connectorname="P$1" id="connector97pad"  cy="7.2" stroke-width="1.44" cx="7.2" r="4.26331"/>
            <circle stroke="#F7BD13" gorn="0.2.0.21" fill="none" connectorname="P$1" id="connector99pad"  cy="50.4" stroke-width="1.44" cx="7.2" r="4.26331"/>
        </g>
    </g>
</svg>
