<?xml version='1.0' encoding='utf-8'?>
<!-- Generator: Adobe Illustrator 24.1.0, SVG Export Plug-In . SVG Version: 6.00 Build 0)  -->
<svg xmlns="http://www.w3.org/2000/svg" gorn="0" x="0px" viewBox="0 0 100.8 79.2" enable-background="new 0 0 100.8 79.2" id="Layer_1" xml:space="preserve" version="1.1" xmlns:xml="http://www.w3.org/XML/1998/namespace" width="1.4in"  y="0px" height="1.1in">
    <desc>
        <referenceFile>BNO055 Rev D1_schematic.svg</referenceFile>
    </desc>
    <desc >Fritzing schematic generated by brd2svg</desc>
    <g gorn="0.1" id="schematic" >
        <rect stroke="#000000" x="14.4" fill="none" stroke-linecap="round" width="71.55" stroke-linejoin="round"  y="14.4" stroke-width="0.9" height="50.4"/>
        <g transform="matrix(1 0 0 1 44.3423 35.1927)" >
            <text gorn="0.1.1.0" font-size="2.8" id="label" font-family="'DroidSans'" >BNO055</text>
        </g>
        <g transform="matrix(1 0 0 1 44.3728 30.6009)" >
            <text gorn="0.1.2.0" font-size="2.8" id="label_1_" font-family="'DroidSans'" >Adafruit</text>
        </g>
        <line stroke="#787878" x1="0.35" fill="none" x2="14.4" y2="28.8" stroke-linecap="round" stroke-linejoin="round"  stroke-width="0.7" y1="28.8"/>
        <rect gorn="0.1.4" fill="none" id="connector20pin" width="14.4"  y="28.45" height="0.7"/>
        <rect gorn="0.1.5" fill="none" id="connector20terminal" width="0"  y="28.45" height="0.7"/>
        <g transform="matrix(1 0 0 1 15.8 29.5)" >
            <text gorn="0.1.6.0" fill="#8C8C8C" font-size="2.8" id="label20" font-family="'DroidSans'" >SCL</text>
        </g>
        <line stroke="#787878" x1="0.35" fill="none" x2="14.4" y2="36" stroke-linecap="round" stroke-linejoin="round"  stroke-width="0.7" y1="36"/>
        <rect gorn="0.1.8" fill="none" id="connector19pin" width="14.4"  y="35.65" height="0.7"/>
        <rect gorn="0.1.9" fill="none" id="connector19terminal" width="0"  y="35.65" height="0.7"/>
        <g transform="matrix(1 0 0 1 15.8 36.7)" >
            <text gorn="0.1.10.0" fill="#8C8C8C" font-size="2.8" id="label19" font-family="'DroidSans'" >SDA</text>
        </g>
        <line stroke="#787878" x1="0.35" fill="none" x2="14.4" y2="43.2" stroke-linecap="round" stroke-linejoin="round"  stroke-width="0.7" y1="43.2"/>
        <rect gorn="0.1.12" fill="none" id="connector44pin" width="14.4"  y="42.85" height="0.7"/>
        <rect gorn="0.1.13" fill="none" id="connector44terminal" width="0"  y="42.85" height="0.7"/>
        <g transform="matrix(1 0 0 1 15.8 43.9)" >
            <text gorn="0.1.14.0" fill="#8C8C8C" font-size="2.8" id="label44" font-family="'DroidSans'" >RESET</text>
        </g>
        <line stroke="#787878" x1="86.0501" fill="none" x2="100.45" y2="28.8" stroke-linecap="round" stroke-linejoin="round"  stroke-width="0.7" y1="28.8"/>
        <rect gorn="0.1.16" x="86.4" fill="none" id="connector35pin" width="14.4"  y="28.45" height="0.7"/>
        <rect gorn="0.1.17" x="100.8" fill="none" id="connector35terminal" width="0"  y="28.45" height="0.7"/>
        <g transform="matrix(1 0 0 1 74.0919 29.5)" >
            <text gorn="0.1.18.0" fill="#8C8C8C" font-size="2.8" id="label35" font-family="'DroidSans'" >INT_3V</text>
        </g>
        <line stroke="#787878" x1="86.0501" fill="none" x2="100.45" y2="36" stroke-linecap="round" stroke-linejoin="round"  stroke-width="0.7" y1="36"/>
        <rect gorn="0.1.20" x="86.4" fill="none" id="connector36pin" width="14.4"  y="35.65" height="0.7"/>
        <rect gorn="0.1.21" x="100.8" fill="none" id="connector36terminal" width="0"  y="35.65" height="0.7"/>
        <g transform="matrix(1 0 0 1 65.441 36.7)" >
            <text gorn="0.1.22.0" fill="#8C8C8C" font-size="2.8" id="label36" font-family="'DroidSans'" >I2CADDR_3V</text>
        </g>
        <line stroke="#787878" x1="86.0501" fill="none" x2="100.45" y2="43.2" stroke-linecap="round" stroke-linejoin="round"  stroke-width="0.7" y1="43.2"/>
        <rect gorn="0.1.24" x="86.4" fill="none" id="connector37pin" width="14.4"  y="42.85" height="0.7"/>
        <rect gorn="0.1.25" x="100.8" fill="none" id="connector37terminal" width="0"  y="42.85" height="0.7"/>
        <g transform="matrix(1 0 0 1 73.8851 43.9)" >
            <text gorn="0.1.26.0" fill="#8C8C8C" font-size="2.8" id="label37" font-family="'DroidSans'" >PS0_3V</text>
        </g>
        <line stroke="#787878" x1="86.0501" fill="none" x2="100.45" y2="50.4" stroke-linecap="round" stroke-linejoin="round"  stroke-width="0.7" y1="50.4"/>
        <rect gorn="0.1.28" x="86.4" fill="none" id="connector38pin" width="14.4"  y="50.05" height="0.7"/>
        <rect gorn="0.1.29" x="100.8" fill="none" id="connector38terminal" width="0"  y="50.05" height="0.7"/>
        <g transform="matrix(1 0 0 1 73.8851 51.1)" >
            <text gorn="0.1.30.0" fill="#8C8C8C" font-size="2.8" id="label38" font-family="'DroidSans'" >PS1_3V</text>
        </g>
        <line stroke="#787878" x1="50.4" fill="none" x2="50.4" y2="14.4" stroke-linecap="round" stroke-linejoin="round"  stroke-width="0.7" y1="0.35"/>
        <rect gorn="0.1.32" x="50.05" fill="none" id="connector40pin" width="0.7"  y="0" height="14.4"/>
        <polygon gorn="0.1.33" fill="none" id="connector40terminal" points="50.05,0 50.75,0 50.75,0 " />
        <g transform="matrix(1, 0, 0, 1, 51.8, 16)" >
            <g >
                <g transform="rotate(270)" >
                    <g >
                        <g transform="matrix(1 0 0 1 -6.781 0)" >
                            <text gorn="0.1.34.0.0.0.0.0" fill="#8C8C8C" font-size="2.8" id="label40" font-family="'DroidSans'" >3.3V</text>
                        </g>
                    </g>
                </g>
            </g>
        </g>
        <line stroke="#787878" x1="57.6" fill="none" x2="57.6" y2="14.4" stroke-linecap="round" stroke-linejoin="round"  stroke-width="0.7" y1="0.35"/>
        <rect gorn="0.1.36" x="57.25" fill="none" id="connector18pin" width="0.7"  y="0" height="14.4"/>
        <polygon gorn="0.1.37" fill="none" id="connector18terminal" points="57.25,0 57.95,0 57.95,0 " />
        <g transform="matrix(1, 0, 0, 1, 59, 16)" >
            <g >
                <g transform="rotate(270)" >
                    <g >
                        <g transform="matrix(1 0 0 1 -6.0681 0)" >
                            <text gorn="0.1.38.0.0.0.0.0" fill="#8C8C8C" font-size="2.8" id="label18" font-family="'DroidSans'" >VCC</text>
                        </g>
                    </g>
                </g>
            </g>
        </g>
        <line stroke="#787878" x1="50.4" fill="none" x2="50.4" y2="78.8501" stroke-linecap="round" stroke-linejoin="round"  stroke-width="0.7" y1="64.8"/>
        <rect gorn="0.1.40" x="50.05" fill="none" id="connector17pin" width="0.7"  y="64.8" height="14.4"/>
        <polygon gorn="0.1.41" fill="none" id="connector17terminal" points="50.05,79.2 50.75,79.2 50.75,79.2 " />
        <g transform="matrix(1, 0, 0, 1, 51.8, 63.2)" >
            <g >
                <g transform="rotate(270)" >
                    <g >
                        <g transform="matrix(1 0 0 1 2.868210e-05 0)" >
                            <text gorn="0.1.42.0.0.0.0.0" fill="#8C8C8C" font-size="2.8" id="label17" font-family="'DroidSans'" >GND</text>
                        </g>
                    </g>
                </g>
            </g>
        </g>
        <rect gorn="0.1.43" x="57.25" fill="none" id="connector39pin" width="0.7"  y="0" height="14.4"/>
        <polygon gorn="0.1.44" fill="none" id="connector39terminal" points="57.25,0 57.95,0 57.95,0 " />
        <rect gorn="0.1.45" x="57.25" fill="none" id="connector24pin" width="0.7"  y="0" height="14.4"/>
        <polygon gorn="0.1.46" fill="none" id="connector24terminal" points="57.25,0 57.95,0 57.95,0 " />
        <rect gorn="0.1.47" x="50.05" fill="none" id="connector41pin" width="0.7"  y="64.8" height="14.4"/>
        <polygon gorn="0.1.48" fill="none" id="connector41terminal" points="50.05,79.2 50.75,79.2 50.75,79.2 " />
        <rect gorn="0.1.49" x="50.05" fill="none" id="connector23pin" width="0.7"  y="64.8" height="14.4"/>
        <polygon gorn="0.1.50" fill="none" id="connector23terminal" points="50.05,79.2 50.75,79.2 50.75,79.2 " />
        <rect gorn="0.1.51" fill="none" id="connector42pin" width="14.4"  y="28.45" height="0.7"/>
        <rect gorn="0.1.52" fill="none" id="connector42terminal" width="0"  y="28.45" height="0.7"/>
        <rect gorn="0.1.53" fill="none" id="connector26pin" width="14.4"  y="28.45" height="0.7"/>
        <rect gorn="0.1.54" fill="none" id="connector26terminal" width="0"  y="28.45" height="0.7"/>
        <rect gorn="0.1.55" fill="none" id="connector43pin" width="14.4"  y="35.65" height="0.7"/>
        <rect gorn="0.1.56" fill="none" id="connector43terminal" width="0"  y="35.65" height="0.7"/>
        <rect gorn="0.1.57" fill="none" id="connector25pin" width="14.4"  y="35.65" height="0.7"/>
        <rect gorn="0.1.58" fill="none" id="connector25terminal" width="0"  y="35.65" height="0.7"/>
    </g>
</svg>
